<svg xmlns="http://www.w3.org/2000/svg" xmlns:xlink="http://www.w3.org/1999/xlink" width="500" zoomAndPan="magnify" viewBox="0 0 375 374.999991" height="500" preserveAspectRatio="xMidYMid meet" version="1.0"><defs><clipPath id="a563fcc56d"><path d="M 37.566406 314.179688 L 275.824219 314.179688 L 275.824219 374.832031 L 37.566406 374.832031 Z M 37.566406 314.179688 " clip-rule="nonzero"/></clipPath><clipPath id="3db525e96f"><path d="M 37.566406 0 L 339.449219 0 L 339.449219 374.714844 L 37.566406 374.714844 Z M 37.566406 0 " clip-rule="nonzero"/></clipPath></defs><g clip-path="url(#a563fcc56d)"><path fill="#ffffff" d="M 275.710938 316.167969 C 258.566406 316.136719 249.195312 322.101562 240.609375 327.566406 C 230.492188 334 221.417969 339.773438 202.632812 335.027344 C 202.238281 334.921875 201.097656 334.558594 199.386719 334.003906 C 189.769531 330.898438 161.464844 321.757812 145.386719 321.558594 C 137.492188 321.460938 134.59375 323.128906 134.566406 325.644531 C 134.5 331.171875 145.496094 340.839844 152 346.550781 L 152.003906 346.550781 C 153.707031 348.050781 155.113281 349.28125 156 350.175781 C 162.1875 356.382812 164.277344 362.25 163.539062 366.53125 C 163.140625 368.855469 161.933594 370.722656 160.101562 371.960938 C 158.320312 373.164062 155.972656 373.75 153.230469 373.5625 C 146.433594 373.085938 136.988281 367.738281 127.925781 354.804688 C 125.015625 350.652344 122.164062 346.597656 119.148438 343.871094 C 116.308594 341.304688 113.289062 339.894531 109.867188 340.738281 C 104.457031 342.058594 103.683594 347.113281 102.835938 352.683594 C 101.898438 358.847656 100.875 365.570312 94.105469 369.585938 C 87.957031 373.234375 82.808594 372.304688 77.5 371.351562 C 73.515625 370.636719 69.4375 369.902344 64.847656 371.308594 C 60.226562 372.726562 55.417969 374.015625 50.53125 374.683594 C 46.246094 375.269531 41.90625 375.375 37.566406 374.664062 L 38.972656 372.542969 C 42.726562 373.035156 46.492188 372.910156 50.222656 372.402344 C 54.96875 371.75 59.660156 370.488281 64.179688 369.101562 C 69.292969 367.539062 73.652344 368.324219 77.90625 369.085938 C 82.78125 369.960938 87.515625 370.8125 92.929688 367.601562 C 98.757812 364.144531 99.691406 357.984375 100.550781 352.34375 C 101.519531 345.96875 102.402344 340.183594 109.324219 338.496094 C 113.632812 337.441406 117.304688 339.097656 120.695312 342.160156 C 123.90625 345.0625 126.832031 349.222656 129.816406 353.484375 C 138.414062 365.761719 147.171875 370.824219 153.382812 371.253906 C 155.59375 371.410156 157.449219 370.960938 158.8125 370.046875 C 160.113281 369.164062 160.976562 367.820312 161.265625 366.140625 C 161.886719 362.53125 159.964844 357.417969 154.363281 351.800781 C 153.585938 351.019531 152.1875 349.785156 150.476562 348.289062 L 150.480469 348.285156 C 143.679688 342.308594 132.179688 332.199219 132.261719 325.617188 C 132.3125 321.730469 135.832031 319.136719 145.414062 319.253906 C 161.847656 319.460938 190.390625 328.675781 200.085938 331.808594 C 201.734375 332.335938 202.824219 332.691406 203.191406 332.785156 C 221.023438 337.292969 229.699219 331.777344 239.371094 325.621094 C 244.824219 322.152344 250.585938 318.488281 258.359375 316.1875 C 264.125 314.488281 271.75 313.996094 275.710938 316.167969 " fill-opacity="1" fill-rule="nonzero"/></g><g clip-path="url(#3db525e96f)"><path fill="#ffffff" d="M 63.078125 336.277344 C 53.003906 325.4375 58.902344 301.71875 62.523438 288.003906 C 67.515625 270.453125 73.46875 254.707031 79.808594 242.878906 C 89.992188 236.738281 131.503906 220.460938 161.53125 168.515625 L 125.914062 184.480469 C 169.808594 155.550781 199.410156 100.984375 254.191406 71.480469 C 254.191406 71.480469 217.066406 73.226562 197.355469 87.011719 C 197.355469 87.011719 220.402344 67.429688 278.597656 58.882812 L 256.855469 48.117188 L 286.507812 51.976562 C 286.507812 51.976562 300.925781 17.160156 339.453125 4.386719 C 339.453125 4.386719 202.550781 -27.535156 156.597656 77.644531 C 156.597656 77.644531 164.847656 51.589844 177.488281 29.136719 C 177.488281 29.136719 113.117188 42.886719 82.222656 130.832031 C 82.222656 130.832031 89.632812 94.738281 97.488281 78.648438 C 97.488281 78.648438 57.929688 114.023438 59.589844 184.105469 C 59.589844 184.105469 50.441406 160.492188 52.878906 140.828125 C 52.878906 140.828125 21 184.222656 60.523438 233.664062 C 65.695312 222.128906 116.050781 104.847656 193.679688 64.707031 C 101.003906 133.257812 49.636719 262.070312 37.566406 374.664062 L 63.078125 336.277344 " fill-opacity="1" fill-rule="evenodd"/></g></svg>