<svg xmlns="http://www.w3.org/2000/svg" xmlns:xlink="http://www.w3.org/1999/xlink" width="189" zoomAndPan="magnify" viewBox="0 0 141.75 64.499998" height="86" preserveAspectRatio="xMidYMid meet" version="1.0"><defs><g/><clipPath id="16499de6cd"><path d="M 4.300781 44.535156 L 28.054688 44.535156 L 28.054688 50.40625 L 4.300781 50.40625 Z M 4.300781 44.535156 " clip-rule="nonzero"/></clipPath><clipPath id="99e2613463"><path d="M 4.300781 13.210938 L 34.058594 13.210938 L 34.058594 50.40625 L 4.300781 50.40625 Z M 4.300781 13.210938 " clip-rule="nonzero"/></clipPath></defs><g fill="#ffffff" fill-opacity="1"><g transform="translate(35.651066, 40.957048)"><g><path d="M 2.972656 -0.929688 C 2.492188 -0.75 1.984375 -0.660156 1.472656 -0.539062 C 1.320312 -0.480469 1.113281 -0.511719 0.929688 -0.480469 C 0.78125 -0.449219 0.660156 -0.390625 0.539062 -0.269531 C 0.480469 -0.242188 0.449219 -0.179688 0.480469 -0.121094 C 0.511719 -0.0585938 0.539062 -0.03125 0.601562 0 C 0.660156 0 0.722656 0.03125 0.78125 0.03125 C 1.023438 0.03125 1.292969 0.03125 1.53125 0.03125 C 3.964844 0.03125 6.398438 0.03125 8.832031 0.03125 C 9.042969 0.03125 9.285156 0 9.492188 0 C 9.554688 0 9.585938 -0.03125 9.644531 -0.03125 C 9.765625 -0.0585938 9.824219 -0.242188 9.765625 -0.332031 C 9.703125 -0.421875 9.644531 -0.480469 9.554688 -0.480469 C 9.101562 -0.539062 8.683594 -0.511719 8.261719 -0.632812 C 8.140625 -0.660156 8.023438 -0.632812 7.902344 -0.660156 C 7.660156 -0.660156 7.421875 -0.660156 7.179688 -0.660156 C 7.03125 -0.691406 6.878906 -0.691406 6.730469 -0.75 C 6.488281 -0.839844 6.25 -0.839844 6.039062 -0.960938 C 5.949219 -0.992188 5.859375 -1.050781 5.796875 -1.082031 C 5.558594 -1.261719 5.40625 -1.472656 5.40625 -1.773438 C 5.40625 -1.984375 5.40625 -2.191406 5.5 -2.402344 C 5.589844 -2.734375 5.679688 -3.066406 5.738281 -3.394531 C 5.796875 -3.664062 5.890625 -3.90625 5.949219 -4.175781 C 6.007812 -4.386719 6.097656 -4.566406 6.160156 -4.777344 C 6.21875 -5.015625 6.28125 -5.257812 6.398438 -5.46875 C 6.460938 -5.679688 6.460938 -5.890625 6.550781 -6.097656 C 6.578125 -6.160156 6.609375 -6.1875 6.667969 -6.21875 C 6.761719 -6.28125 6.820312 -6.308594 6.910156 -6.308594 C 7.332031 -6.371094 7.722656 -6.371094 8.113281 -6.371094 C 8.5625 -6.371094 9.011719 -6.398438 9.464844 -6.460938 C 9.644531 -6.519531 9.855469 -6.519531 10.035156 -6.519531 C 11.238281 -6.550781 12.46875 -6.609375 13.671875 -6.609375 C 13.941406 -6.609375 14.242188 -6.609375 14.511719 -6.667969 C 14.570312 -6.667969 14.632812 -6.667969 14.691406 -6.667969 C 14.84375 -6.667969 14.992188 -6.609375 15.082031 -6.488281 C 15.234375 -6.28125 15.351562 -6.070312 15.414062 -5.828125 C 15.625 -5.199219 15.894531 -4.597656 16.105469 -3.9375 C 16.132812 -3.847656 16.164062 -3.726562 16.195312 -3.605469 C 16.253906 -3.273438 16.34375 -2.945312 16.464844 -2.613281 C 16.613281 -2.222656 16.703125 -1.800781 16.886719 -1.410156 C 16.914062 -1.320312 16.886719 -1.230469 16.855469 -1.171875 C 16.796875 -1.082031 16.765625 -0.992188 16.675781 -0.929688 C 16.523438 -0.839844 16.375 -0.722656 16.195312 -0.691406 C 15.832031 -0.660156 15.472656 -0.539062 15.113281 -0.511719 C 15.050781 -0.511719 14.992188 -0.480469 14.933594 -0.480469 C 14.722656 -0.421875 14.691406 -0.148438 14.78125 -0.03125 C 14.871094 0.0898438 14.960938 0.121094 15.082031 0.179688 C 15.5625 0.210938 16.074219 0.210938 16.554688 0.148438 C 17.09375 0.0898438 17.636719 0.0898438 18.175781 0.0585938 C 19.679688 0.0585938 21.179688 0.0585938 22.683594 0.03125 C 22.773438 0.03125 22.863281 0.03125 22.953125 0.03125 C 23.132812 0.03125 23.285156 -0.121094 23.34375 -0.300781 C 23.40625 -0.421875 23.316406 -0.632812 23.164062 -0.660156 C 22.953125 -0.722656 22.714844 -0.839844 22.472656 -0.839844 C 22.261719 -0.871094 22.050781 -0.960938 21.871094 -1.023438 C 21.601562 -1.113281 21.453125 -1.292969 21.332031 -1.53125 C 21.300781 -1.59375 21.273438 -1.683594 21.242188 -1.773438 C 20.910156 -2.582031 20.582031 -3.425781 20.339844 -4.265625 C 20.25 -4.597656 20.128906 -4.898438 19.980469 -5.199219 C 19.917969 -5.347656 19.859375 -5.5 19.828125 -5.617188 C 19.558594 -6.28125 19.289062 -6.941406 18.988281 -7.570312 C 18.839844 -7.839844 18.71875 -8.113281 18.597656 -8.382812 C 18.476562 -8.714844 18.328125 -9.011719 18.238281 -9.3125 C 18.148438 -9.613281 17.996094 -9.882812 17.875 -10.15625 C 17.875 -10.183594 17.875 -10.214844 17.847656 -10.246094 C 17.726562 -10.664062 17.605469 -11.054688 17.484375 -11.476562 C 17.214844 -12.347656 16.945312 -13.21875 16.554688 -14.0625 C 16.375 -14.480469 16.195312 -14.902344 16.042969 -15.324219 C 16.015625 -15.472656 15.953125 -15.625 15.894531 -15.742188 C 15.652344 -16.433594 15.351562 -17.125 15.140625 -17.816406 C 15.050781 -18.117188 14.933594 -18.386719 14.8125 -18.65625 C 14.660156 -18.957031 14.570312 -19.289062 14.390625 -19.589844 C 14.242188 -19.800781 14.179688 -20.101562 14.0625 -20.308594 C 13.878906 -20.609375 13.640625 -20.789062 13.339844 -20.851562 C 13.25 -20.851562 13.160156 -20.851562 13.070312 -20.851562 C 12.617188 -20.882812 12.199219 -20.882812 11.777344 -20.941406 C 11.628906 -20.972656 11.476562 -20.972656 11.328125 -20.972656 C 10.785156 -20.972656 10.214844 -21 9.675781 -21 C 9.464844 -21 9.253906 -21 9.042969 -20.941406 C 8.894531 -20.882812 8.742188 -20.882812 8.59375 -20.882812 C 8.230469 -20.851562 7.871094 -20.820312 7.480469 -20.820312 C 7.390625 -20.789062 7.300781 -20.789062 7.210938 -20.761719 C 7.179688 -20.761719 7.121094 -20.699219 7.089844 -20.671875 C 7.03125 -20.609375 7 -20.460938 7.058594 -20.398438 C 7.089844 -20.371094 7.152344 -20.308594 7.179688 -20.308594 C 7.359375 -20.28125 7.570312 -20.28125 7.75 -20.28125 C 8.023438 -20.28125 8.292969 -20.28125 8.5625 -20.28125 C 8.742188 -20.25 8.894531 -20.101562 8.921875 -19.917969 C 8.921875 -19.800781 8.921875 -19.710938 8.921875 -19.617188 C 8.921875 -19.378906 8.863281 -19.136719 8.832031 -18.898438 C 8.742188 -18.597656 8.683594 -18.328125 8.59375 -18.027344 C 8.503906 -17.757812 8.472656 -17.484375 8.351562 -17.246094 C 8.292969 -16.976562 8.230469 -16.703125 8.171875 -16.433594 C 8.082031 -16.042969 7.960938 -15.683594 7.839844 -15.292969 C 7.660156 -14.78125 7.480469 -14.269531 7.332031 -13.730469 C 7.089844 -12.859375 6.851562 -11.988281 6.550781 -11.117188 C 6.550781 -11.054688 6.519531 -10.996094 6.519531 -10.9375 C 6.488281 -10.574219 6.339844 -10.273438 6.25 -9.945312 C 6.128906 -9.554688 6.007812 -9.132812 5.890625 -8.742188 C 5.769531 -8.351562 5.648438 -7.992188 5.558594 -7.601562 C 5.558594 -7.511719 5.527344 -7.421875 5.5 -7.332031 C 5.40625 -7.121094 5.347656 -6.941406 5.289062 -6.730469 C 4.808594 -5.316406 4.355469 -3.875 3.875 -2.464844 C 3.785156 -2.191406 3.695312 -1.894531 3.574219 -1.59375 C 3.546875 -1.472656 3.457031 -1.351562 3.335938 -1.230469 C 3.246094 -1.113281 3.125 -1.023438 2.972656 -0.929688 Z M 9.976562 -7.421875 C 9.042969 -7.421875 8.230469 -7.421875 7.421875 -7.421875 C 7.332031 -7.421875 7.242188 -7.421875 7.152344 -7.480469 C 7.089844 -7.511719 7.03125 -7.542969 7.058594 -7.601562 C 7.058594 -7.691406 7.058594 -7.8125 7.089844 -7.871094 C 7.421875 -8.5625 7.601562 -9.3125 7.78125 -10.035156 C 7.933594 -10.664062 8.113281 -11.296875 8.292969 -11.898438 C 8.5625 -12.679688 8.804688 -13.460938 9.101562 -14.210938 C 9.253906 -14.511719 9.285156 -14.84375 9.402344 -15.171875 C 9.464844 -15.382812 9.523438 -15.59375 9.585938 -15.773438 C 9.613281 -15.921875 9.675781 -16.074219 9.734375 -16.195312 C 9.855469 -16.433594 9.914062 -16.644531 9.976562 -16.886719 C 10.066406 -17.214844 10.125 -17.546875 10.246094 -17.875 C 10.246094 -17.90625 10.304688 -17.964844 10.367188 -17.996094 C 10.394531 -18.027344 10.457031 -18.027344 10.515625 -17.9375 C 10.546875 -17.875 10.605469 -17.785156 10.636719 -17.695312 C 10.726562 -17.484375 10.816406 -17.277344 10.875 -17.035156 C 10.964844 -16.765625 11.027344 -16.496094 11.117188 -16.222656 C 11.207031 -15.894531 11.328125 -15.53125 11.445312 -15.203125 C 11.597656 -14.84375 11.777344 -14.480469 11.957031 -14.121094 C 12.046875 -13.910156 12.167969 -13.671875 12.257812 -13.460938 C 12.316406 -13.308594 12.410156 -13.191406 12.46875 -13.039062 C 12.617188 -12.527344 12.890625 -12.046875 13.128906 -11.539062 C 13.28125 -11.148438 13.460938 -10.785156 13.640625 -10.367188 C 13.699219 -10.214844 13.761719 -10.035156 13.820312 -9.855469 C 13.972656 -9.285156 14.210938 -8.714844 14.453125 -8.171875 C 14.511719 -8.050781 14.570312 -7.960938 14.632812 -7.839844 C 14.660156 -7.75 14.601562 -7.660156 14.511719 -7.632812 C 14.332031 -7.632812 14.152344 -7.632812 13.972656 -7.632812 C 13.582031 -7.632812 13.191406 -7.601562 12.800781 -7.542969 C 12.679688 -7.511719 12.558594 -7.511719 12.4375 -7.511719 C 11.566406 -7.480469 10.726562 -7.421875 9.976562 -7.421875 Z M 9.976562 -7.421875 "/></g></g></g><g fill="#ffffff" fill-opacity="1"><g transform="translate(65.509571, 40.957048)"><g><path d="M 7.152344 -21 C 5.707031 -21 4.296875 -21 2.855469 -21 C 2.613281 -21 2.375 -21 2.132812 -21 C 1.894531 -21 1.710938 -20.882812 1.59375 -20.699219 C 1.53125 -20.640625 1.5625 -20.519531 1.652344 -20.492188 C 1.863281 -20.371094 2.074219 -20.339844 2.285156 -20.339844 C 2.613281 -20.28125 2.945312 -20.191406 3.246094 -20.070312 C 3.363281 -20.007812 3.484375 -19.859375 3.484375 -19.710938 C 3.484375 -19.46875 3.515625 -19.230469 3.515625 -18.988281 C 3.515625 -18.117188 3.515625 -17.277344 3.546875 -16.40625 C 3.546875 -16.222656 3.546875 -16.042969 3.574219 -15.863281 C 3.636719 -15.351562 3.636719 -14.84375 3.636719 -14.332031 C 3.636719 -14.152344 3.636719 -14 3.605469 -13.851562 C 3.515625 -13.398438 3.515625 -12.949219 3.515625 -12.5 C 3.515625 -10.09375 3.515625 -7.660156 3.515625 -5.257812 C 3.515625 -4.507812 3.484375 -3.753906 3.484375 -2.972656 C 3.484375 -2.734375 3.484375 -2.492188 3.425781 -2.253906 C 3.394531 -1.984375 3.363281 -1.710938 3.304688 -1.441406 C 3.273438 -1.351562 3.246094 -1.261719 3.15625 -1.203125 C 3.066406 -1.082031 2.945312 -0.992188 2.792969 -0.929688 C 2.554688 -0.871094 2.34375 -0.78125 2.101562 -0.722656 C 1.800781 -0.660156 1.53125 -0.539062 1.230469 -0.449219 C 1.203125 -0.449219 1.171875 -0.449219 1.140625 -0.421875 C 1.113281 -0.421875 1.082031 -0.390625 1.082031 -0.359375 C 0.992188 -0.332031 0.960938 -0.210938 0.960938 -0.121094 C 0.992188 -0.0585938 1.082031 0 1.171875 0.03125 C 1.441406 0.0585938 1.710938 0.03125 1.984375 0.03125 C 4.328125 0.03125 6.667969 0 9.042969 0 C 9.132812 0 9.222656 0 9.3125 -0.03125 C 9.492188 -0.03125 9.675781 -0.0898438 9.824219 -0.210938 C 9.855469 -0.242188 9.882812 -0.300781 9.882812 -0.359375 C 9.855469 -0.421875 9.855469 -0.480469 9.792969 -0.511719 C 9.554688 -0.601562 9.3125 -0.660156 9.074219 -0.691406 C 8.953125 -0.722656 8.832031 -0.75 8.742188 -0.8125 C 8.53125 -0.902344 8.351562 -0.992188 8.171875 -1.082031 C 8.113281 -1.113281 8.050781 -1.171875 8.023438 -1.203125 C 7.933594 -1.261719 7.902344 -1.351562 7.871094 -1.410156 C 7.839844 -1.53125 7.839844 -1.683594 7.839844 -1.800781 C 7.8125 -2.855469 7.8125 -3.9375 7.839844 -4.988281 C 7.839844 -6.128906 7.871094 -7.242188 7.871094 -8.382812 C 7.871094 -8.503906 7.902344 -8.621094 7.902344 -8.742188 C 7.902344 -8.804688 7.992188 -8.921875 8.050781 -8.953125 C 8.441406 -9.074219 8.832031 -9.101562 9.222656 -9.074219 C 9.3125 -9.042969 9.402344 -9.011719 9.464844 -8.953125 C 9.523438 -8.894531 9.613281 -8.804688 9.644531 -8.742188 C 9.914062 -8.351562 10.15625 -7.992188 10.394531 -7.601562 C 10.757812 -7.03125 11.148438 -6.460938 11.445312 -5.890625 C 11.476562 -5.828125 11.507812 -5.769531 11.539062 -5.707031 C 11.898438 -5.109375 12.316406 -4.535156 12.679688 -3.964844 C 12.917969 -3.605469 13.191406 -3.273438 13.429688 -2.914062 C 13.671875 -2.523438 13.878906 -2.101562 14.089844 -1.710938 C 14.210938 -1.53125 14.332031 -1.351562 14.421875 -1.171875 C 14.480469 -1.050781 14.453125 -0.929688 14.332031 -0.839844 C 14.242188 -0.8125 14.152344 -0.75 14.089844 -0.75 C 14 -0.722656 13.910156 -0.722656 13.820312 -0.691406 C 13.519531 -0.660156 13.21875 -0.601562 12.917969 -0.511719 C 12.890625 -0.480469 12.890625 -0.449219 12.859375 -0.421875 C 12.800781 -0.300781 12.828125 -0.121094 12.949219 -0.03125 C 13.039062 0.03125 13.128906 0.0585938 13.21875 0.0585938 C 13.550781 0.0585938 13.878906 0.0585938 14.210938 0.0585938 C 14.902344 0.0585938 15.625 0.03125 16.3125 0.03125 C 17.816406 0 19.320312 0 20.789062 0 C 20.851562 0 20.910156 -0.03125 20.972656 -0.03125 C 21.152344 -0.03125 21.273438 -0.148438 21.332031 -0.300781 C 21.332031 -0.359375 21.363281 -0.421875 21.332031 -0.449219 C 21.273438 -0.539062 21.242188 -0.632812 21.152344 -0.660156 C 20.910156 -0.75 20.699219 -0.839844 20.460938 -0.871094 C 20.191406 -0.902344 19.980469 -0.992188 19.738281 -1.050781 C 19.46875 -1.113281 19.230469 -1.261719 19.046875 -1.472656 C 18.957031 -1.621094 18.839844 -1.773438 18.71875 -1.921875 C 18.539062 -2.191406 18.386719 -2.492188 18.207031 -2.765625 C 18.058594 -2.972656 17.9375 -3.183594 17.785156 -3.394531 C 17.605469 -3.695312 17.394531 -3.996094 17.246094 -4.328125 C 17.125 -4.566406 16.976562 -4.808594 16.824219 -5.046875 C 16.703125 -5.199219 16.585938 -5.378906 16.464844 -5.558594 C 16.132812 -6.070312 15.832031 -6.609375 15.472656 -7.089844 C 15.082031 -7.660156 14.691406 -8.261719 14.300781 -8.863281 C 14.152344 -9.101562 14 -9.375 13.820312 -9.613281 C 13.789062 -9.675781 13.761719 -9.734375 13.761719 -9.792969 C 13.730469 -9.855469 13.761719 -9.914062 13.820312 -9.976562 C 14.0625 -10.15625 14.390625 -10.367188 14.722656 -10.574219 C 14.871094 -10.636719 15.050781 -10.726562 15.203125 -10.816406 C 15.59375 -11.085938 15.953125 -11.328125 16.34375 -11.597656 C 16.585938 -11.777344 16.824219 -11.957031 17.035156 -12.167969 C 17.125 -12.257812 17.214844 -12.347656 17.277344 -12.4375 C 17.515625 -12.800781 17.785156 -13.160156 17.964844 -13.519531 C 18.027344 -13.671875 18.085938 -13.789062 18.148438 -13.941406 C 18.328125 -14.480469 18.328125 -14.542969 18.355469 -15.023438 C 18.355469 -15.472656 18.328125 -15.921875 18.328125 -16.40625 C 18.328125 -16.703125 18.238281 -17.003906 18.117188 -17.277344 C 18.058594 -17.425781 17.996094 -17.546875 17.90625 -17.695312 C 17.757812 -17.9375 17.574219 -18.207031 17.425781 -18.449219 C 17.367188 -18.539062 17.304688 -18.597656 17.246094 -18.6875 C 17.003906 -18.957031 16.765625 -19.230469 16.464844 -19.4375 C 16.285156 -19.558594 16.132812 -19.710938 15.953125 -19.828125 C 15.832031 -19.917969 15.714844 -20.007812 15.59375 -20.101562 C 15.140625 -20.371094 14.691406 -20.609375 14.179688 -20.699219 C 13.820312 -20.851562 13.460938 -20.882812 13.097656 -20.882812 C 12.949219 -20.910156 12.800781 -20.882812 12.648438 -20.910156 C 12.167969 -21.03125 11.65625 -21 11.175781 -21 C 9.824219 -21 8.503906 -21 7.152344 -21 Z M 8.082031 -10.066406 C 7.992188 -10.125 7.902344 -10.183594 7.902344 -10.273438 C 7.871094 -10.394531 7.871094 -10.515625 7.871094 -10.636719 C 7.871094 -12.558594 7.871094 -14.480469 7.839844 -16.40625 C 7.839844 -16.796875 7.871094 -17.214844 7.871094 -17.605469 C 7.902344 -18.148438 7.933594 -18.6875 7.933594 -19.257812 C 7.992188 -19.378906 8.023438 -19.527344 8.082031 -19.679688 C 8.113281 -19.800781 8.203125 -19.890625 8.324219 -19.917969 C 9.011719 -20.101562 9.011719 -20.101562 9.675781 -20.101562 C 9.824219 -20.101562 9.976562 -20.101562 10.125 -20.101562 C 10.394531 -20.101562 10.664062 -20.101562 10.9375 -19.980469 C 11.507812 -19.917969 11.957031 -19.617188 12.410156 -19.289062 C 12.4375 -19.289062 12.46875 -19.257812 12.46875 -19.230469 C 12.648438 -19.019531 12.828125 -18.808594 12.980469 -18.566406 C 13.070312 -18.449219 13.128906 -18.296875 13.160156 -18.175781 C 13.28125 -17.785156 13.371094 -17.394531 13.398438 -17.003906 C 13.429688 -16.703125 13.429688 -16.40625 13.488281 -16.105469 C 13.550781 -15.921875 13.550781 -15.742188 13.519531 -15.5625 C 13.429688 -15.050781 13.398438 -14.570312 13.371094 -14.089844 C 13.339844 -13.972656 13.308594 -13.851562 13.28125 -13.730469 C 13.25 -13.582031 13.21875 -13.429688 13.160156 -13.308594 C 13.070312 -13.070312 13.007812 -12.828125 12.890625 -12.617188 C 12.707031 -12.289062 12.5 -11.925781 12.226562 -11.628906 C 11.835938 -11.175781 11.355469 -10.785156 10.816406 -10.484375 C 10.605469 -10.335938 10.335938 -10.246094 10.066406 -10.246094 C 9.855469 -10.214844 9.675781 -10.214844 9.492188 -10.183594 C 9.375 -10.183594 9.253906 -10.183594 9.132812 -10.15625 C 8.953125 -10.09375 8.773438 -10.066406 8.59375 -10.066406 C 8.414062 -10.066406 8.230469 -10.066406 8.082031 -10.066406 Z M 8.082031 -10.066406 "/></g></g></g><g fill="#ffffff" fill-opacity="1"><g transform="translate(93.565879, 40.957048)"><g><path d="M 8.863281 0.03125 C 9.164062 0.03125 9.464844 0.03125 9.765625 0.03125 C 11.808594 0.03125 13.851562 0.03125 15.894531 0.03125 C 16.164062 0.03125 16.40625 0.03125 16.644531 0 C 16.824219 0 17.003906 -0.0898438 17.15625 -0.179688 C 17.246094 -0.269531 17.304688 -0.390625 17.335938 -0.511719 C 17.367188 -0.75 17.367188 -0.992188 17.394531 -1.230469 C 17.425781 -1.382812 17.425781 -1.53125 17.457031 -1.683594 C 17.515625 -1.921875 17.546875 -2.164062 17.546875 -2.402344 C 17.574219 -2.792969 17.574219 -3.183594 17.636719 -3.574219 C 17.757812 -4.054688 17.757812 -4.566406 17.726562 -5.046875 C 17.726562 -5.199219 17.546875 -5.316406 17.394531 -5.257812 C 17.277344 -5.257812 17.183594 -5.167969 17.125 -5.046875 C 17.09375 -4.957031 17.066406 -4.867188 17.066406 -4.777344 C 17.003906 -4.535156 16.976562 -4.296875 16.886719 -4.085938 C 16.824219 -3.847656 16.734375 -3.605469 16.613281 -3.394531 C 16.523438 -3.183594 16.40625 -2.972656 16.3125 -2.734375 C 16.222656 -2.554688 16.105469 -2.375 15.984375 -2.191406 C 15.863281 -2.042969 15.742188 -1.921875 15.59375 -1.800781 C 15.472656 -1.710938 15.351562 -1.621094 15.203125 -1.5625 C 15.023438 -1.441406 14.84375 -1.351562 14.632812 -1.292969 C 14.152344 -1.171875 13.699219 -1.050781 13.191406 -1.023438 C 12.769531 -1.023438 12.347656 -1.023438 11.925781 -0.929688 C 11.777344 -0.902344 11.597656 -0.902344 11.445312 -0.902344 C 10.335938 -0.902344 9.195312 -0.902344 8.082031 -0.902344 C 7.992188 -0.902344 7.902344 -0.902344 7.8125 -0.902344 C 7.75 -0.929688 7.601562 -1.023438 7.601562 -1.082031 C 7.570312 -1.140625 7.542969 -1.203125 7.542969 -1.261719 C 7.542969 -1.621094 7.511719 -1.984375 7.511719 -2.34375 C 7.511719 -3.636719 7.511719 -4.925781 7.511719 -6.1875 C 7.511719 -6.820312 7.511719 -7.421875 7.601562 -8.023438 C 7.632812 -8.171875 7.632812 -8.324219 7.632812 -8.472656 C 7.660156 -8.894531 7.660156 -9.34375 7.691406 -9.765625 C 7.691406 -9.855469 7.691406 -9.945312 7.722656 -10.035156 C 7.722656 -10.09375 7.839844 -10.214844 7.902344 -10.214844 C 7.992188 -10.246094 8.140625 -10.273438 8.261719 -10.273438 C 9.222656 -10.246094 10.214844 -10.246094 11.175781 -10.246094 C 11.566406 -10.246094 11.898438 -10.15625 12.226562 -9.976562 C 12.289062 -9.914062 12.378906 -9.882812 12.46875 -9.824219 C 12.5 -9.824219 12.5 -9.792969 12.527344 -9.765625 C 12.648438 -9.703125 12.738281 -9.613281 12.769531 -9.492188 C 12.917969 -9.132812 13.039062 -8.742188 13.128906 -8.382812 C 13.191406 -8.171875 13.25 -7.960938 13.339844 -7.75 C 13.371094 -7.722656 13.398438 -7.660156 13.429688 -7.601562 C 13.488281 -7.511719 13.550781 -7.480469 13.671875 -7.480469 C 13.761719 -7.480469 13.878906 -7.601562 13.910156 -7.722656 C 13.910156 -7.8125 13.910156 -7.902344 13.910156 -7.992188 C 13.910156 -8.230469 13.878906 -8.472656 13.820312 -8.714844 C 13.761719 -8.953125 13.730469 -9.195312 13.730469 -9.433594 C 13.699219 -9.882812 13.699219 -10.335938 13.730469 -10.816406 C 13.761719 -10.996094 13.730469 -11.175781 13.789062 -11.355469 C 13.878906 -11.925781 13.878906 -12.5 13.941406 -13.070312 C 13.972656 -13.308594 13.941406 -13.519531 13.941406 -13.730469 C 13.941406 -13.789062 13.941406 -13.851562 13.910156 -13.910156 C 13.878906 -13.941406 13.820312 -14 13.789062 -14.03125 C 13.761719 -14.0625 13.582031 -14 13.550781 -13.972656 C 13.488281 -13.878906 13.429688 -13.820312 13.398438 -13.730469 C 13.308594 -13.460938 13.25 -13.191406 13.21875 -12.917969 C 13.160156 -12.648438 13.070312 -12.410156 12.980469 -12.136719 C 12.917969 -11.925781 12.769531 -11.777344 12.589844 -11.65625 C 12.257812 -11.445312 11.925781 -11.328125 11.566406 -11.328125 C 11.417969 -11.328125 11.265625 -11.296875 11.117188 -11.296875 C 10.09375 -11.296875 9.101562 -11.296875 8.082031 -11.296875 C 8.050781 -11.296875 8.023438 -11.296875 7.992188 -11.296875 C 7.871094 -11.328125 7.75 -11.445312 7.75 -11.539062 C 7.75 -11.808594 7.75 -12.109375 7.75 -12.378906 C 7.75 -12.617188 7.722656 -12.859375 7.75 -13.097656 C 7.8125 -13.398438 7.8125 -13.699219 7.8125 -14 C 7.8125 -14.660156 7.8125 -15.292969 7.8125 -15.921875 C 7.8125 -16.433594 7.839844 -16.914062 7.75 -17.394531 C 7.722656 -17.484375 7.722656 -17.574219 7.722656 -17.667969 C 7.722656 -18.265625 7.691406 -18.898438 7.691406 -19.5 C 7.660156 -19.589844 7.691406 -19.679688 7.691406 -19.769531 C 7.691406 -19.859375 7.8125 -20.007812 7.933594 -20.039062 C 8.050781 -20.070312 8.171875 -20.070312 8.292969 -20.070312 C 9.433594 -20.070312 10.605469 -20.070312 11.746094 -20.070312 C 12.136719 -20.070312 12.5 -20.070312 12.859375 -20.070312 C 12.980469 -20.070312 13.097656 -20.070312 13.21875 -20.039062 C 13.488281 -19.949219 13.761719 -19.949219 14.03125 -19.890625 C 14.121094 -19.859375 14.210938 -19.828125 14.269531 -19.769531 C 14.332031 -19.738281 14.390625 -19.710938 14.421875 -19.679688 C 14.933594 -19.230469 15.351562 -18.6875 15.714844 -18.117188 C 15.863281 -17.875 16.015625 -17.605469 16.164062 -17.335938 C 16.195312 -17.277344 16.222656 -17.214844 16.222656 -17.15625 C 16.3125 -16.886719 16.433594 -16.644531 16.464844 -16.375 C 16.464844 -16.285156 16.496094 -16.195312 16.523438 -16.105469 C 16.523438 -16.042969 16.554688 -15.984375 16.613281 -15.953125 C 16.644531 -15.921875 16.703125 -15.894531 16.765625 -15.894531 C 16.824219 -15.863281 16.976562 -15.984375 16.976562 -16.042969 C 16.976562 -16.105469 17.003906 -16.164062 17.003906 -16.222656 C 17.003906 -16.675781 17.003906 -17.125 16.945312 -17.574219 C 16.914062 -17.875 16.886719 -18.207031 16.886719 -18.507812 C 16.886719 -18.957031 16.886719 -19.410156 16.886719 -19.859375 C 16.855469 -20.160156 16.855469 -20.429688 16.796875 -20.699219 C 16.796875 -20.789062 16.644531 -20.910156 16.554688 -20.941406 C 16.40625 -20.972656 16.253906 -20.972656 16.105469 -20.972656 C 13.097656 -21 10.125 -21 7.121094 -21.03125 C 6.910156 -21.03125 6.699219 -21.03125 6.488281 -21 C 6.097656 -20.972656 5.679688 -20.972656 5.289062 -20.972656 C 5.078125 -20.972656 4.867188 -20.941406 4.65625 -20.910156 C 4.054688 -20.789062 3.457031 -20.820312 2.824219 -20.910156 C 2.375 -20.972656 1.921875 -20.972656 1.472656 -20.941406 C 1.382812 -20.941406 1.261719 -20.820312 1.261719 -20.699219 C 1.261719 -20.640625 1.292969 -20.582031 1.320312 -20.519531 C 1.441406 -20.398438 1.5625 -20.308594 1.710938 -20.308594 C 2.042969 -20.28125 2.375 -20.160156 2.703125 -20.101562 C 2.855469 -20.070312 2.972656 -19.980469 3.09375 -19.859375 C 3.183594 -19.800781 3.246094 -19.679688 3.246094 -19.558594 C 3.273438 -19.378906 3.273438 -19.199219 3.273438 -19.019531 C 3.273438 -17.726562 3.273438 -16.433594 3.273438 -15.171875 C 3.304688 -14.570312 3.304688 -14 3.335938 -13.429688 C 3.335938 -13.25 3.335938 -13.070312 3.363281 -12.890625 C 3.425781 -12.589844 3.425781 -12.257812 3.425781 -11.957031 C 3.425781 -11.175781 3.425781 -10.367188 3.457031 -9.585938 C 3.484375 -9.195312 3.457031 -8.804688 3.425781 -8.414062 C 3.335938 -7.8125 3.335938 -7.242188 3.304688 -6.667969 C 3.304688 -6.28125 3.304688 -5.859375 3.273438 -5.46875 C 3.273438 -5.289062 3.273438 -5.109375 3.246094 -4.925781 C 3.125 -4.535156 3.15625 -4.144531 3.15625 -3.753906 C 3.15625 -3.304688 3.15625 -2.882812 3.15625 -2.464844 C 3.15625 -2.164062 3.125 -1.863281 3.09375 -1.5625 C 3.066406 -1.320312 2.945312 -1.140625 2.734375 -1.050781 C 2.613281 -0.960938 2.464844 -0.902344 2.3125 -0.839844 C 2.101562 -0.75 1.863281 -0.722656 1.621094 -0.691406 C 1.410156 -0.660156 1.203125 -0.570312 1.023438 -0.449219 C 0.960938 -0.390625 0.929688 -0.300781 0.929688 -0.210938 C 0.929688 -0.121094 1.023438 -0.03125 1.082031 0 C 1.203125 0.0585938 1.320312 0.0585938 1.441406 0.0585938 C 3.09375 0.0585938 4.746094 0.0898438 6.398438 0.0898438 C 7.179688 0.0898438 7.992188 0.121094 8.773438 0.03125 C 8.804688 0.03125 8.832031 0.03125 8.863281 0.03125 Z M 8.863281 0.03125 "/></g></g></g><g fill="#ffffff" fill-opacity="1"><g transform="translate(118.498375, 40.957048)"><g><path d="M 7.269531 -21 C 7.269531 -21.03125 7.269531 -21.03125 7.269531 -21.03125 C 5.917969 -21.03125 4.597656 -21.03125 3.246094 -21.03125 C 2.945312 -21.03125 2.644531 -21 2.34375 -21 C 2.253906 -21 2.164062 -21 2.074219 -20.972656 C 1.953125 -20.941406 1.832031 -20.882812 1.773438 -20.761719 C 1.742188 -20.671875 1.773438 -20.550781 1.832031 -20.519531 C 1.921875 -20.492188 2.011719 -20.429688 2.101562 -20.398438 C 2.164062 -20.371094 2.253906 -20.371094 2.34375 -20.339844 C 2.464844 -20.339844 2.613281 -20.308594 2.734375 -20.308594 C 2.972656 -20.25 3.15625 -20.101562 3.335938 -19.917969 C 3.363281 -19.859375 3.394531 -19.800781 3.394531 -19.738281 C 3.394531 -19.648438 3.425781 -19.558594 3.425781 -19.46875 C 3.425781 -18.777344 3.394531 -18.058594 3.425781 -17.367188 C 3.457031 -15.652344 3.425781 -13.941406 3.425781 -12.257812 C 3.425781 -9.554688 3.394531 -6.878906 3.394531 -4.207031 C 3.394531 -3.785156 3.363281 -3.394531 3.363281 -3.003906 C 3.363281 -2.492188 3.304688 -1.984375 3.214844 -1.472656 C 3.183594 -1.351562 3.125 -1.230469 3.035156 -1.140625 C 2.945312 -1.050781 2.824219 -0.929688 2.675781 -0.902344 C 2.492188 -0.8125 2.34375 -0.75 2.132812 -0.722656 C 1.832031 -0.660156 1.5625 -0.539062 1.261719 -0.480469 C 1.140625 -0.449219 1.050781 -0.359375 0.960938 -0.300781 C 0.902344 -0.269531 0.871094 -0.210938 0.871094 -0.148438 C 0.902344 -0.0898438 0.929688 -0.03125 0.992188 0 C 1.050781 0.03125 1.113281 0.0585938 1.140625 0.0585938 C 1.441406 0.0585938 1.710938 0.0585938 1.984375 0.0585938 C 4.265625 0.03125 6.550781 0.03125 8.832031 0 C 8.921875 0 9.011719 0 9.101562 0 C 9.3125 0 9.464844 -0.0585938 9.644531 -0.148438 C 9.675781 -0.148438 9.675781 -0.179688 9.703125 -0.210938 C 9.765625 -0.242188 9.792969 -0.300781 9.734375 -0.359375 C 9.734375 -0.421875 9.675781 -0.449219 9.644531 -0.511719 C 9.375 -0.570312 9.101562 -0.660156 8.832031 -0.722656 C 8.621094 -0.75 8.441406 -0.839844 8.230469 -0.929688 C 8.113281 -0.992188 7.992188 -1.082031 7.871094 -1.203125 C 7.8125 -1.261719 7.78125 -1.351562 7.75 -1.441406 C 7.722656 -1.742188 7.722656 -2.042969 7.660156 -2.34375 C 7.632812 -3.246094 7.632812 -4.117188 7.660156 -5.015625 C 7.722656 -5.347656 7.722656 -5.679688 7.75 -6.007812 C 7.75 -6.640625 7.75 -7.269531 7.75 -7.933594 C 7.75 -8.082031 7.78125 -8.230469 7.78125 -8.382812 C 7.78125 -8.53125 7.902344 -8.652344 8.050781 -8.683594 C 8.203125 -8.714844 8.351562 -8.742188 8.503906 -8.742188 C 8.832031 -8.773438 9.132812 -8.773438 9.433594 -8.773438 C 9.613281 -8.773438 9.792969 -8.773438 9.976562 -8.832031 C 10.304688 -8.894531 10.636719 -8.921875 10.964844 -8.953125 C 11.117188 -8.984375 11.265625 -8.984375 11.417969 -9.042969 C 11.597656 -9.074219 11.777344 -9.101562 11.957031 -9.132812 C 12.167969 -9.132812 12.378906 -9.164062 12.589844 -9.253906 C 12.738281 -9.285156 12.890625 -9.285156 13.039062 -9.3125 C 13.128906 -9.34375 13.21875 -9.34375 13.308594 -9.375 C 13.941406 -9.554688 14.570312 -9.765625 15.140625 -10.125 C 16.042969 -10.726562 16.042969 -10.695312 16.703125 -11.386719 C 16.914062 -11.628906 17.09375 -11.867188 17.246094 -12.136719 C 17.484375 -12.558594 17.695312 -13.007812 17.875 -13.460938 C 17.9375 -13.582031 17.996094 -13.730469 18.027344 -13.878906 C 18.058594 -14.089844 18.148438 -14.300781 18.148438 -14.511719 C 18.175781 -14.75 18.175781 -14.992188 18.175781 -15.234375 C 18.175781 -15.382812 18.175781 -15.53125 18.175781 -15.683594 C 18.175781 -15.832031 18.148438 -15.984375 18.117188 -16.132812 C 18.085938 -16.3125 18.058594 -16.496094 18.027344 -16.675781 C 17.964844 -17.035156 17.847656 -17.394531 17.695312 -17.726562 C 17.636719 -17.816406 17.605469 -17.875 17.546875 -17.964844 C 17.214844 -18.355469 16.886719 -18.746094 16.554688 -19.136719 C 16.40625 -19.320312 16.253906 -19.46875 16.074219 -19.558594 C 15.863281 -19.679688 15.683594 -19.859375 15.472656 -19.980469 C 15.261719 -20.128906 15.050781 -20.25 14.871094 -20.398438 C 14.691406 -20.492188 14.511719 -20.492188 14.332031 -20.582031 C 14.300781 -20.582031 14.300781 -20.582031 14.269531 -20.609375 C 14.0625 -20.671875 13.851562 -20.761719 13.671875 -20.820312 C 13.460938 -20.882812 13.25 -20.882812 13.007812 -20.882812 C 12.917969 -20.910156 12.828125 -20.910156 12.738281 -20.941406 C 12.558594 -21 12.316406 -21 12.109375 -21 C 11.835938 -21 11.566406 -21 11.296875 -21 C 9.945312 -21 8.621094 -21 7.269531 -21 Z M 7.75 -14.421875 C 7.75 -15.082031 7.75 -15.714844 7.75 -16.34375 C 7.75 -17.246094 7.78125 -18.117188 7.8125 -19.019531 C 7.8125 -19.078125 7.8125 -19.136719 7.839844 -19.199219 C 7.871094 -19.46875 8.023438 -19.710938 8.351562 -19.738281 C 8.441406 -19.738281 8.53125 -19.769531 8.621094 -19.769531 C 9.285156 -19.800781 9.976562 -19.800781 10.636719 -19.769531 C 10.726562 -19.738281 10.816406 -19.738281 10.90625 -19.710938 C 11.296875 -19.617188 11.65625 -19.5 12.019531 -19.347656 C 12.136719 -19.320312 12.226562 -19.230469 12.347656 -19.167969 C 12.648438 -18.867188 12.917969 -18.539062 13.160156 -18.175781 C 13.28125 -17.9375 13.398438 -17.695312 13.519531 -17.457031 C 13.671875 -17.035156 13.851562 -16.644531 13.851562 -16.222656 C 13.851562 -16.164062 13.851562 -16.105469 13.878906 -16.042969 C 13.972656 -15.683594 13.972656 -15.324219 13.910156 -14.960938 C 13.878906 -14.871094 13.851562 -14.78125 13.851562 -14.691406 C 13.878906 -14.179688 13.671875 -13.730469 13.488281 -13.28125 C 13.191406 -12.648438 12.859375 -12.019531 12.4375 -11.445312 C 12.136719 -10.996094 11.746094 -10.605469 11.238281 -10.335938 C 11.148438 -10.304688 11.054688 -10.214844 10.9375 -10.15625 C 10.425781 -9.882812 9.882812 -9.675781 9.285156 -9.644531 C 9.074219 -9.644531 8.863281 -9.644531 8.652344 -9.644531 C 8.441406 -9.613281 8.230469 -9.585938 8.023438 -9.554688 C 7.902344 -9.523438 7.78125 -9.675781 7.78125 -9.765625 C 7.78125 -9.792969 7.78125 -9.824219 7.78125 -9.855469 C 7.78125 -9.914062 7.78125 -9.976562 7.78125 -10.035156 C 7.75 -11.507812 7.75 -12.980469 7.75 -14.421875 Z M 7.75 -14.421875 "/></g></g></g><g clip-path="url(#16499de6cd)"><path fill="#ffffff" d="M 28.042969 44.730469 C 26.332031 44.730469 25.398438 45.324219 24.542969 45.867188 C 23.535156 46.511719 22.628906 47.085938 20.757812 46.613281 C 20.71875 46.601562 20.605469 46.566406 20.433594 46.511719 C 19.476562 46.199219 16.652344 45.289062 15.050781 45.269531 C 14.261719 45.257812 13.972656 45.425781 13.972656 45.675781 C 13.964844 46.226562 15.0625 47.191406 15.710938 47.761719 C 15.878906 47.910156 16.019531 48.035156 16.109375 48.121094 C 16.726562 48.742188 16.933594 49.328125 16.859375 49.753906 C 16.820312 49.984375 16.699219 50.171875 16.515625 50.292969 C 16.339844 50.414062 16.105469 50.472656 15.832031 50.453125 C 15.152344 50.40625 14.210938 49.875 13.308594 48.585938 C 13.019531 48.171875 12.734375 47.765625 12.433594 47.496094 C 12.152344 47.238281 11.851562 47.097656 11.507812 47.183594 C 10.96875 47.3125 10.890625 47.816406 10.808594 48.371094 C 10.714844 48.988281 10.613281 49.65625 9.9375 50.058594 C 9.324219 50.421875 8.8125 50.328125 8.28125 50.234375 C 7.882812 50.164062 7.476562 50.089844 7.019531 50.230469 C 6.558594 50.371094 6.078125 50.5 5.59375 50.566406 C 5.164062 50.625 4.734375 50.636719 4.300781 50.5625 L 4.441406 50.351562 C 4.8125 50.402344 5.191406 50.390625 5.5625 50.339844 C 6.035156 50.273438 6.503906 50.148438 6.953125 50.011719 C 7.464844 49.855469 7.898438 49.933594 8.320312 50.007812 C 8.808594 50.09375 9.28125 50.179688 9.820312 49.859375 C 10.402344 49.515625 10.492188 48.902344 10.578125 48.339844 C 10.675781 47.703125 10.765625 47.125 11.453125 46.957031 C 11.882812 46.851562 12.25 47.019531 12.585938 47.324219 C 12.90625 47.613281 13.199219 48.027344 13.496094 48.453125 C 14.355469 49.675781 15.226562 50.179688 15.847656 50.222656 C 16.066406 50.238281 16.253906 50.195312 16.386719 50.105469 C 16.519531 50.015625 16.605469 49.882812 16.632812 49.714844 C 16.695312 49.355469 16.503906 48.84375 15.945312 48.285156 C 15.867188 48.207031 15.726562 48.082031 15.558594 47.933594 C 14.878906 47.339844 13.734375 46.332031 13.742188 45.675781 C 13.746094 45.285156 14.097656 45.027344 15.050781 45.039062 C 16.691406 45.058594 19.535156 45.980469 20.503906 46.292969 C 20.667969 46.34375 20.777344 46.378906 20.8125 46.390625 C 22.589844 46.839844 23.457031 46.289062 24.421875 45.675781 C 24.964844 45.328125 25.539062 44.964844 26.3125 44.734375 C 26.886719 44.566406 27.648438 44.515625 28.042969 44.730469 " fill-opacity="1" fill-rule="nonzero"/></g><g clip-path="url(#99e2613463)"><path fill="#ffffff" d="M 6.84375 46.738281 C 5.839844 45.65625 6.425781 43.292969 6.789062 41.925781 C 7.285156 40.175781 7.878906 38.605469 8.511719 37.425781 C 9.527344 36.8125 13.664062 35.191406 16.660156 30.011719 L 13.109375 31.601562 C 17.484375 28.71875 20.4375 23.277344 25.898438 20.335938 C 25.898438 20.335938 22.195312 20.511719 20.230469 21.886719 C 20.230469 21.886719 22.527344 19.933594 28.332031 19.082031 L 26.164062 18.007812 L 29.121094 18.390625 C 29.121094 18.390625 30.558594 14.921875 34.398438 13.648438 C 34.398438 13.648438 20.75 10.464844 16.167969 20.949219 C 16.167969 20.949219 16.988281 18.351562 18.25 16.113281 C 18.25 16.113281 11.832031 17.484375 8.753906 26.253906 C 8.753906 26.253906 9.492188 22.65625 10.273438 21.050781 C 10.273438 21.050781 6.332031 24.578125 6.496094 31.566406 C 6.496094 31.566406 5.582031 29.210938 5.828125 27.25 C 5.828125 27.25 2.648438 31.578125 6.589844 36.507812 C 7.105469 35.355469 12.125 23.664062 19.863281 19.660156 C 10.625 26.496094 5.503906 39.339844 4.300781 50.5625 L 6.84375 46.738281 " fill-opacity="1" fill-rule="evenodd"/></g></svg>