<svg xmlns="http://www.w3.org/2000/svg" xmlns:xlink="http://www.w3.org/1999/xlink" width="400" zoomAndPan="magnify" viewBox="0 0 300 225" height="300" preserveAspectRatio="xMidYMid meet" version="1.0"><defs><g/><clipPath id="c0c4b8e9c8"><path d="M 115 58.15625 L 299.8125 58.15625 L 299.8125 158.867188 L 115 158.867188 Z M 115 58.15625 " clip-rule="nonzero"/></clipPath><clipPath id="e551892b3a"><path d="M 181.121094 58.15625 L 293.484375 58.15625 C 295.632812 58.15625 297.617188 59.308594 298.683594 61.175781 C 299.75 63.042969 299.730469 65.339844 298.632812 67.191406 L 249.695312 149.832031 C 246.378906 155.429688 240.351562 158.867188 233.84375 158.867188 L 121.480469 158.867188 C 119.332031 158.867188 117.347656 157.710938 116.28125 155.84375 C 115.21875 153.976562 115.234375 151.679688 116.332031 149.832031 L 165.269531 67.191406 C 168.585938 61.589844 174.613281 58.15625 181.121094 58.15625 Z M 181.121094 58.15625 " clip-rule="nonzero"/></clipPath></defs><g clip-path="url(#c0c4b8e9c8)"><g clip-path="url(#e551892b3a)"><path fill="#000000" d="M 110.980469 58.15625 L 304.140625 58.15625 L 304.140625 158.863281 L 110.980469 158.863281 Z M 110.980469 58.15625 " fill-opacity="1" fill-rule="nonzero"/></g></g><g fill="#000000" fill-opacity="1"><g transform="translate(-0.000000000000031974, 141.901221)"><g><path d="M 45.375 -10.9375 L 19.421875 -10.9375 L 15.09375 0 L -0.421875 0 L 25.1875 -59.375 L 40.703125 -59.375 L 65.734375 0 L 49.609375 0 Z M 40.96875 -22.390625 L 32.484375 -44.359375 L 23.828125 -22.390625 Z M 40.96875 -22.390625 "/></g></g></g><g fill="#000000" fill-opacity="1"><g transform="translate(60.470216, 141.901221)"><g><path d="M 41.734375 0 L 32.90625 -16.703125 L 21.03125 -16.703125 L 21.03125 0 L 5.9375 0 L 5.9375 -59.375 L 32.484375 -59.375 C 40.335938 -59.375 46.410156 -57.578125 50.703125 -53.984375 C 55.003906 -50.390625 57.15625 -45.285156 57.15625 -38.671875 C 57.15625 -29.515625 53.566406 -23.15625 46.390625 -19.59375 L 58.859375 0 Z M 21.03125 -28.578125 L 32.484375 -28.578125 C 35.765625 -28.578125 38.304688 -29.394531 40.109375 -31.03125 C 41.921875 -32.675781 42.828125 -35.054688 42.828125 -38.171875 C 42.828125 -41.222656 41.921875 -43.539062 40.109375 -45.125 C 38.304688 -46.707031 35.765625 -47.5 32.484375 -47.5 L 21.03125 -47.5 Z M 21.03125 -28.578125 "/></g></g></g><g fill="#ffffff" fill-opacity="1"><g transform="translate(149.592327, 141.901221)"><g><path d="M 52.421875 -47.5 L 21.03125 -47.5 L 21.03125 -35.703125 L 49.359375 -35.703125 L 49.359375 -23.828125 L 21.03125 -23.828125 L 21.03125 -11.875 L 53.34375 -11.875 L 53.34375 0 L 5.9375 0 L 5.9375 -59.375 L 52.421875 -59.375 Z M 52.421875 -47.5 "/></g></g></g><g fill="#ffffff" fill-opacity="1"><g transform="translate(201.920628, 141.901221)"><g><path d="M 5.9375 -59.375 L 31.796875 -59.375 C 39.378906 -59.375 45.257812 -57.578125 49.4375 -53.984375 C 53.625 -50.390625 55.71875 -45.285156 55.71875 -38.671875 C 55.71875 -31.722656 53.625 -26.320312 49.4375 -22.46875 C 45.257812 -18.625 39.378906 -16.703125 31.796875 -16.703125 L 21.03125 -16.703125 L 21.03125 0 L 5.9375 0 Z M 21.03125 -47.5 L 21.03125 -28.578125 L 31.046875 -28.578125 C 34.378906 -28.578125 36.945312 -29.394531 38.75 -31.03125 C 40.5625 -32.675781 41.46875 -35.054688 41.46875 -38.171875 C 41.46875 -41.222656 40.5625 -43.539062 38.75 -45.125 C 36.945312 -46.707031 34.378906 -47.5 31.046875 -47.5 Z M 21.03125 -47.5 "/></g></g></g></svg>