<svg xmlns="http://www.w3.org/2000/svg" xmlns:xlink="http://www.w3.org/1999/xlink" width="189" zoomAndPan="magnify" viewBox="0 0 141.75 36.000001" height="48" preserveAspectRatio="xMidYMid meet" version="1.0"><defs><g/><clipPath id="9602c1fb7d"><path d="M 1.792969 0 L 139.710938 0 L 139.710938 35.027344 L 1.792969 35.027344 Z M 1.792969 0 " clip-rule="nonzero"/></clipPath><clipPath id="4daff1e235"><path d="M 21.058594 12 L 25 12 L 25 23 L 21.058594 23 Z M 21.058594 12 " clip-rule="nonzero"/></clipPath><clipPath id="d5b5370e0d"><path d="M 30 0 L 34.195312 0 L 34.195312 23 L 30 23 Z M 30 0 " clip-rule="nonzero"/></clipPath></defs><g clip-path="url(#9602c1fb7d)"><path fill="#ffffff" d="M 1.792969 0 L 139.710938 0 L 139.710938 35.027344 L 1.792969 35.027344 Z M 1.792969 0 " fill-opacity="1" fill-rule="nonzero"/><path fill="#ffffff" d="M 1.792969 0 L 139.710938 0 L 139.710938 35.027344 L 1.792969 35.027344 Z M 1.792969 0 " fill-opacity="1" fill-rule="nonzero"/></g><g fill="#000000" fill-opacity="1"><g transform="translate(55.469098, 26.270272)"><g><path d="M 14.496094 -12.28125 C 14.410156 -14.71875 14.355469 -21.109375 10.207031 -19.34375 C 7.515625 -18.195312 5.46875 -14.691406 4.316406 -12.167969 C 2.804688 -8.746094 2.074219 -5.128906 1.429688 -1.484375 C 0.953125 1.175781 4.992188 2.300781 5.46875 -0.363281 C 5.71875 -1.765625 5.972656 -3.195312 6.28125 -4.597656 L 10.484375 -4.429688 C 10.542969 -3.308594 10.570312 -2.1875 10.597656 -1.09375 C 10.652344 1.625 14.859375 1.625 14.773438 -1.09375 C 14.691406 -4.820312 14.636719 -8.550781 14.496094 -12.28125 Z M 7.625 -9.222656 C 8.101562 -10.457031 8.71875 -11.691406 9.449219 -12.785156 C 9.699219 -13.175781 9.980469 -13.542969 10.261719 -13.878906 C 10.289062 -13.316406 10.261719 -12.757812 10.289062 -12.28125 C 10.34375 -11.074219 10.375 -9.867188 10.402344 -8.636719 C 9.421875 -8.664062 8.4375 -8.71875 7.457031 -8.746094 C 7.515625 -8.914062 7.570312 -9.054688 7.625 -9.222656 Z M 7.625 -9.222656 "/></g></g></g><g fill="#000000" fill-opacity="1"><g transform="translate(70.266051, 26.270272)"><g><path d="M 15.925781 -2.664062 C 14.382812 -4.765625 12.617188 -6.644531 10.597656 -8.269531 C 12.113281 -9.335938 13.375 -10.820312 13.90625 -12.421875 C 14.972656 -15.617188 12.113281 -18.757812 8.859375 -18.617188 C 5.410156 -18.449219 3.140625 -15.25 2.523438 -12.140625 C 1.710938 -8.101562 1.710938 -3.8125 1.402344 0.28125 C 1.175781 2.972656 5.382812 2.972656 5.605469 0.28125 C 5.777344 -1.933594 5.945312 -4.148438 6.140625 -6.363281 C 8.523438 -4.792969 10.597656 -2.859375 12.308594 -0.53125 C 13.878906 1.625 17.550781 -0.476562 15.925781 -2.664062 Z M 9.925781 -13.878906 C 10.035156 -13.429688 8.773438 -12.308594 8.4375 -12 C 7.851562 -11.46875 7.289062 -11.074219 6.558594 -10.988281 C 6.644531 -11.46875 6.757812 -11.945312 6.953125 -12.390625 C 7.148438 -12.925781 9.53125 -15.785156 9.925781 -13.878906 Z M 9.925781 -13.878906 "/></g></g></g><g fill="#000000" fill-opacity="1"><g transform="translate(86.604437, 26.270272)"><g><path d="M 11.691406 -5.945312 C 9.757812 -6.027344 7.820312 -5.945312 5.914062 -5.777344 C 6.054688 -6.839844 6.222656 -7.90625 6.363281 -8.972656 C 7.316406 -8.972656 8.269531 -8.945312 9.222656 -8.832031 C 10.375 -8.71875 11.328125 -9.867188 11.328125 -10.933594 C 11.328125 -12.167969 10.375 -12.925781 9.222656 -13.035156 C 8.496094 -13.121094 7.765625 -13.148438 7.007812 -13.175781 C 7.175781 -14.242188 7.375 -15.335938 7.542969 -16.429688 C 8.972656 -16.429688 10.375 -16.375 11.804688 -16.289062 C 14.496094 -16.09375 14.496094 -20.296875 11.804688 -20.496094 C 9.785156 -20.632812 7.738281 -20.664062 5.71875 -20.578125 C 4.933594 -20.578125 4.375 -20.1875 4.039062 -19.652344 C 3.898438 -19.429688 3.785156 -19.148438 3.730469 -18.839844 C 2.804688 -13.683594 2.046875 -8.523438 1.402344 -3.363281 C 1.207031 -1.851562 2.886719 -1.148438 4.066406 -1.316406 C 6.589844 -1.738281 9.140625 -1.851562 11.691406 -1.738281 C 14.382812 -1.625 14.382812 -5.832031 11.691406 -5.945312 Z M 11.691406 -5.945312 "/></g></g></g><g fill="#000000" fill-opacity="1"><g transform="translate(100.420481, 26.270272)"><g><path d="M 11.328125 -19.148438 C 9.617188 -19.820312 7.597656 -20.101562 5.859375 -19.457031 C 3.867188 -18.699219 3.167969 -17.019531 2.945312 -15.027344 C 2.355469 -10.007812 1.90625 -4.960938 1.402344 0.0546875 C 1.121094 2.746094 5.328125 2.746094 5.605469 0.0546875 C 5.832031 -2.074219 6.027344 -4.207031 6.253906 -6.308594 C 9.898438 -5.46875 14.074219 -6.8125 15.757812 -10.375 C 17.605469 -14.242188 14.886719 -17.71875 11.328125 -19.148438 Z M 6.699219 -10.570312 C 6.785156 -11.355469 6.839844 -12.167969 6.925781 -12.953125 C 6.980469 -13.542969 6.898438 -14.523438 7.148438 -15.027344 C 7.402344 -15.558594 7.09375 -15.449219 7.710938 -15.617188 C 9.140625 -16.035156 12.308594 -14.4375 12.167969 -12.8125 C 11.972656 -10.234375 8.550781 -10.007812 6.699219 -10.570312 Z M 6.699219 -10.570312 "/></g></g></g><g clip-path="url(#4daff1e235)"><path fill="#00b1e7" d="M 24.316406 12.425781 L 24.316406 21.066406 C 24.316406 21.683594 23.585938 22.1875 22.691406 22.1875 C 21.796875 22.1875 21.066406 21.683594 21.066406 21.066406 L 21.066406 12.425781 " fill-opacity="1" fill-rule="evenodd"/></g><path fill="#25abf6" d="M 29.269531 6.753906 L 29.269531 21.066406 C 29.269531 21.683594 28.535156 22.1875 27.644531 22.1875 C 26.75 22.1875 26.019531 21.683594 26.019531 21.066406 L 26.019531 6.753906 " fill-opacity="1" fill-rule="evenodd"/><g clip-path="url(#d5b5370e0d)"><path fill="#0086e7" d="M 34.222656 0 L 34.222656 21.066406 C 34.222656 21.683594 33.492188 22.1875 32.597656 22.1875 C 31.703125 22.1875 30.972656 21.683594 30.972656 21.066406 L 30.972656 0 " fill-opacity="1" fill-rule="evenodd"/></g><path fill="#00b1e7" d="M 29.425781 31.554688 L 27.792969 34.824219 C 27.691406 35.027344 27.542969 34.984375 27.46875 34.839844 L 25.832031 31.570312 C 25.765625 31.4375 25.800781 31.28125 25.984375 31.222656 C 26.488281 31.054688 27.039062 30.960938 27.609375 30.960938 L 27.636719 30.960938 C 28.210938 30.960938 28.765625 31.054688 29.273438 31.222656 C 29.535156 31.304688 29.511719 31.386719 29.425781 31.554688 " fill-opacity="1" fill-rule="evenodd"/><path fill="#0d3f63" d="M 33.1875 24.078125 L 30.414062 29.621094 C 30.316406 29.816406 30.222656 29.816406 29.992188 29.730469 C 29.269531 29.46875 28.476562 29.320312 27.648438 29.320312 L 27.625 29.320312 C 26.800781 29.320312 26.003906 29.46875 25.28125 29.734375 C 25.046875 29.816406 24.960938 29.804688 24.84375 29.566406 L 22.089844 24.070312 C 22.027344 23.945312 22.039062 23.835938 22.234375 23.855469 C 23.125 23.960938 24.09375 23.761719 24.832031 23.285156 C 25.109375 23.09375 25.214844 23.101562 25.496094 23.28125 C 26.070312 23.648438 26.828125 23.882812 27.636719 23.882812 L 27.660156 23.882812 C 28.457031 23.878906 29.210938 23.648438 29.78125 23.285156 C 30.003906 23.136719 30.226562 23.136719 30.453125 23.28125 C 31.160156 23.742188 32.089844 23.945312 32.957031 23.867188 C 33.207031 23.84375 33.289062 23.875 33.1875 24.078125 " fill-opacity="1" fill-rule="evenodd"/></svg>